<?xml version="1.0" encoding="utf-8"?>
<!-- Generator: Adobe Illustrator 16.0.0, SVG Export Plug-In . SVG Version: 6.00 Build 0)  -->
<!DOCTYPE svg PUBLIC "-//W3C//DTD SVG 1.1//EN" "http://www.w3.org/Graphics/SVG/1.1/DTD/svg11.dtd">
<svg version="1.1" id="Layer_1" xmlns="http://www.w3.org/2000/svg" xmlns:xlink="http://www.w3.org/1999/xlink" x="0px" y="0px"
	 width="512px" height="512px" viewBox="0 0 512 512"  xml:space="preserve">
<g>
	<path fill="#d33682" d="M422.953,176.019c0.549-0.48,1.09-0.975,1.612-1.498l21.772-21.772c12.883-12.883,12.883-33.771,0-46.654
		l-40.434-40.434c-12.883-12.883-33.771-12.883-46.653,0l-21.772,21.772c-0.523,0.523-1.018,1.064-1.498,1.613L422.953,176.019z"/>
	<polygon fill="#cb4b16" points="114.317,397.684 157.317,440.684 106.658,448.342 56,456 63.658,405.341 71.316,354.683 	"/>
	<polygon fill="#b58900" points="349.143,125.535 118.982,355.694 106.541,343.253 336.701,113.094 324.26,100.653 81.659,343.253 
		168.747,430.341 411.348,187.74 	"/>
</g>
</svg>
